# xmcd CD database file
#
# Track frame offsets:
#	150
#	15095
#	28287
#	40612
#	53375
#	66007
#	78392
#	90657
#	104375
#	117552
#	131687
#	143677
#	157195
#	170300
#
# Disc length: 2456 seconds
#
# Revision: 3
# Processed by: cddbd v1.5.2PL0 Copyright (c) Steve Scherf et al.
# Submitted via: CDex 1.70beta2
#
DISCID=ac09960e
DTITLE=T-Bone Walker - T-Bone Walker - His Original 1942-1947 Performances
DYEAR=1995
DGENRE=Blues
TTITLE0=Got A Break Baby
TTITLE1=Mean Old World
TTITLE2=No Worry Blues
TTITLE3=Don't Leave Me Baby
TTITLE4=I'm In An Awful Mood
TTITLE5=Iknow Your Wig Is Gone
TTITLE6=T-Bone Jumps Again
TTITLE7=Call It Stormy Monday But Tuesday Is Just As Bad
TTITLE8=You're My Best Poker Hand
TTITLE9=First Love Blues
TTITLE10=She's My Old Time Used To Be
TTITLE11=T-Bone Shuffle
TTITLE12=That Old Feeling Is Gone
TTITLE13=Plane Old Down Home Blues
EXTD=YEAR: 1995
EXTT0=
EXTT1=
EXTT2=
EXTT3=
EXTT4=
EXTT5=
EXTT6=
EXTT7=
EXTT8=
EXTT9=
EXTT10=
EXTT11=
EXTT12=
EXTT13=
PLAYORDER=
